HIERARCHY
ROOT ui
{
	 OFFSET 0 0 0
	 CHANNELS 3 XPosition YPosition Z Position
	 EndSite
	 {
	 OFFSET 0 -1 0
	 }
}
ROOT li
{
	 OFFSET 0 0 0
	 CHANNELS 3 XPosition YPosition Z Position
	 EndSite
	 {
	 OFFSET 0 -1 0
	 }
}
ROOT ul
{
	 OFFSET 0 0 0
	 CHANNELS 3 XPosition YPosition Z Position
	 EndSite
	 {
	 OFFSET 0 -1 0
	 }
}
ROOT ll
{
	 OFFSET 0 0 0
	 CHANNELS 3 XPosition YPosition Z Position
	 EndSite
	 {
	 OFFSET 0 -1 0
	 }
}
ROOT tt
{
	 OFFSET 0 0 0
	 CHANNELS 3 XPosition YPosition Z Position
	 EndSite
	 {
	 OFFSET 0 -1 0
	 }
}
ROOT tb
{
	 OFFSET 0 0 0
	 CHANNELS 3 XPosition YPosition Z Position
	 EndSite
	 {
	 OFFSET 0 -1 0
	 }
}
ROOT td
{
	 OFFSET 0 0 0
	 CHANNELS 3 XPosition YPosition Z Position
	 EndSite
	 {
	 OFFSET 0 -1 0
	 }
}
ROOT v
{
	 OFFSET 0 0 0
	 CHANNELS 3 XPosition YPosition Z Position
	 EndSite
	 {
	 OFFSET 0 -1 0
	 }
}
ROOT bn
{
	 OFFSET 0 0 0
	 CHANNELS 3 XPosition YPosition Z Position
	 EndSite
	 {
	 OFFSET 0 -1 0
	 }
}
MOTION
Frames: 32
Frame Time: 0.002
-0.03348550796508789	0.003888581037521362	0		0.533574951171875	-2.497609375	0		-0.8180253295898438	0.31768194580078124	0		-0.5877108764648438	-2.338059814453125	0		1.7982764892578125	-1.1006656494140625	0		3.493019775390625	-0.5965869140625	0		4.81014501953125	-0.5033109130859375	0		5.98530712890625	0.577614501953125	0		-0.3259848937988281	5.86252587890625	0		
-0.010060174942016602	-7.817149758338928E-4	0		0.5659865112304687	-2.51435205078125	0		-0.8184688720703125	0.3262403259277344	0		-0.6501786499023438	-2.342799072265625	0		1.8057225341796874	-1.1080694580078125	0		3.495375	-0.6098531494140625	0		4.7896533203125	-0.5022584838867188	0		5.9777509765625	0.5775787963867187	0		-0.19254768371582032	5.883615234375	0		
-0.0355621337890625	1.1211200058460235E-4	0		0.5136617431640625	-2.508131591796875	0		-0.8440086059570312	0.3250956726074219	0		-0.6016730346679687	-2.351755859375	0		1.8181048583984376	-1.12250927734375	0		3.495122314453125	-0.5890701904296874	0		4.79322900390625	-0.4964571533203125	0		5.98620849609375	0.5773818359375	0		-0.3124691467285156	5.87254345703125	0		
-0.006044305801391601	0.0024192531108856202	0		0.5442845458984376	-2.50681005859375	0		-0.8394932250976562	0.328641357421875	0		-0.6320095825195312	-2.3458125	0		1.783711669921875	-1.116409912109375	0		3.490294189453125	-0.6202222290039062	0		4.78375	-0.49549581909179685	0		5.98666796875	0.5772880249023438	0		-0.326364013671875	5.86231298828125	0		
-0.031562501907348633	0.002361083984375	0		0.5418193359375	-2.5120966796875	0		-0.8070731811523437	0.32390924072265626	0		-0.5675518188476563	-2.35788720703125	0		1.8230623779296875	-1.1331038818359376	0		3.509943359375	-0.6076236572265625	0		4.784251953125	-0.495631103515625	0		5.98712353515625	0.5772051391601563	0		-0.327128173828125	5.8629658203125	0		
0.0728908920288086	-9.299299865961074E-5	0		0.564312255859375	-2.519629150390625	0		-0.8125602416992187	0.32862918090820314	0		-0.606006591796875	-2.359795654296875	0		1.7835697021484376	-1.133906005859375	0		3.481450927734375	-0.6064791259765625	0		4.7737431640625	-0.4956329650878906	0		5.98757080078125	0.5771307983398437	0		-0.19364739990234375	5.8841806640625	0		
-0.03366717147827149	-0.0012011220455169678	0		0.5388927001953125	-2.51660498046875	0		-0.8061693725585938	0.3232558288574219	0		-0.57454443359375	-2.3674345703125	0		1.789990234375	-1.1411878662109376	0		3.48390771484375	-0.6086577758789062	0		4.780119140625	-0.5048093872070313	0		5.98000830078125	0.5771494750976562	0		-0.3135101928710938	5.8742060546875	0		
-0.004198328971862793	0.0012391550540924072	0		0.5223399658203125	-2.522646240234375	0		-0.8336522216796876	0.3312940673828125	0		-0.6439785766601562	-2.361931884765625	0		1.8033082275390624	-1.155518798828125	0		3.488101806640625	-0.6328405151367188	0		4.76755078125	-0.5067702026367188	0		5.9804296875	0.5770820922851563	0		-0.31127731323242186	5.8709326171875	0		
0.007320995807647705	0.010916010856628418	0		0.552816162109375	-2.522163818359375	0		-0.828205078125	0.3350181579589844	0		-0.5778015747070312	-2.388864990234375	0		1.8127010498046876	-1.1597794189453126	0		3.47887548828125	-0.600859375	0		4.76613671875	-0.49184677124023435	0		5.98492578125	0.5859674682617187	0		-0.32609283447265625	5.86188623046875	0		
-0.003408396005630493	8.752099871635437E-4	0		0.5382523193359375	-2.520154296875	0		-0.837819580078125	0.33595428466796873	0		-0.57659619140625	-2.40804345703125	0		1.8100633544921876	-1.162882568359375	0		3.442982421875	-0.626579833984375	0		4.77344580078125	-0.499017333984375	0		5.9891982421875	0.576846435546875	0		-0.3267843017578125	5.8627314453125	0		
-0.0030680150985717774	7.572659850120545E-4	0		0.57143994140625	-2.535626953125	0		-0.806439208984375	0.3394957275390625	0		-0.5513977661132813	-2.422434814453125	0		1.76940087890625	-1.163546875	0		3.47230224609375	-0.6289959716796875	0		4.7627998046875	-0.49799322509765626	0		5.98953564453125	0.5767570190429687	0		-0.3264718322753906	5.8626123046875	0		
-0.005814651966094971	-0.0032845990657806396	0		0.5167603759765625	-2.532107421875	0		-0.8431279296875	0.34082650756835936	0		-0.5513080444335937	-2.440505859375	0		1.77544189453125	-1.1866937255859376	0		3.469552734375	-0.6330542602539062	0		4.7579970703125	-0.50703564453125	0		5.98574853515625	0.5686978759765625	0		-0.3261474609375	5.8625390625	0		
-0.0025232388973236083	6.513379812240601E-4	0		0.5528397827148438	-2.54453662109375	0		-0.8328863525390625	0.3396986083984375	0		-0.5792018432617188	-2.45022412109375	0		1.7815966796875	-1.193815185546875	0		3.457966552734375	-0.617005615234375	0		4.751314453125	-0.5000592346191406	0		5.990091796875	0.576537109375	0		-0.31169680786132814	5.873359375	0		
-0.0023272249698638916	6.638429760932922E-4	0		0.528031494140625	-2.53926513671875	0		-0.8335951538085937	0.34774118041992186	0		-0.5412730712890625	-2.46961083984375	0		1.79072021484375	-1.1979427490234376	0		3.4559736328125	-0.63305224609375	0		4.75149853515625	-0.5001592407226563	0		5.99030126953125	0.5764077758789062	0		-0.17714094543457032	5.89291796875	0		
-0.002186223030090332	7.205349802970886E-4	0		0.5759547729492187	-2.551749755859375	0		-0.80148828125	0.34347579956054686	0		-0.5424429321289063	-2.490524169921875	0		1.7498133544921874	-1.1984969482421874	0		3.455214111328125	-0.6220992431640625	0		4.751623046875	-0.5002592163085937	0		5.99046142578125	0.5762670288085937	0		-0.32514663696289064	5.86260009765625	0		
-0.0021024560928344727	8.217340111732483E-4	0		0.5479430541992187	-2.550365966796875	0		-0.8054336547851563	0.3396549987792969	0		-0.5087300720214843	-2.514771728515625	0		1.7827454833984375	-1.20783154296875	0		3.44905224609375	-0.6420775756835938	0		4.74761962890625	-0.5063152465820312	0		5.98648193359375	0.5681585693359374	0		-0.3588672485351562	5.858087890625	0		
-0.0051214489936828615	-0.002999051094055176	0		0.5776353759765624	-2.568578125	0		-0.8162802734375	0.34996322631835936	0		-0.5490757446289063	-2.5361572265625	0		1.7575770263671875	-1.219501953125	0		3.434166015625	-0.630946044921875	0		4.7327626953125	-0.493251220703125	0		5.97753662109375	0.5680929565429688	0		-0.3244853820800781	5.86287744140625	0		
-0.0021123719215393067	0.0011584919691085816	0		0.5285575561523438	-2.55788037109375	0		-0.8373590087890626	0.3444368896484375	0		-0.5135003662109375	-2.557330810546875	0		1.7613565673828124	-1.229462158203125	0		3.454880859375	-0.650196533203125	0		4.73858642578125	-0.5034152526855469	0		5.9865361328125	0.567819091796875	0		-0.3090525207519531	5.8729208984375	0		
0.004859352111816406	0.007316123008728028	0		0.5931471557617187	-2.5704052734375	0		-0.8333855590820313	0.34868612670898436	0		-0.533005859375	-2.577845947265625	0		1.7721644287109375	-1.23047119140625	0		3.43415478515625	-0.6129686889648438	0		4.73460205078125	-0.49046466064453126	0		5.9905693359375	0.5755941162109375	0		-0.17550233459472656	5.89369384765625	0		
-0.002361713886260986	0.0016757179498672486	0		0.5607511596679687	-2.573810302734375	0		-0.812447265625	0.35479522705078126	0		-0.48467703247070315	-2.606072265625	0		1.7968570556640624	-1.235607421875	0		3.415706787109375	-0.6347492065429687	0		4.7226123046875	-0.47241546630859377	0		5.9812802734375	0.5595148315429688	0		-0.3094295349121094	5.87449462890625	0		
-0.002576077938079834	0.002000960111618042	0		0.5753523559570313	-2.57070263671875	0		-0.8536744384765625	0.35165298461914063	0		-0.5243466796875	-2.626263671875	0		1.7624613037109376	-1.2420489501953125	0		3.4135859375	-0.6216907348632813	0		4.717267578125	-0.48043203735351564	0		5.9770224609375	0.5513806762695312	0		-0.32327166748046876	5.8640048828125	0		
-0.0028500161170959474	0.0023685100078582764	0		0.5527083740234375	-2.582135986328125	0		-0.8169189453125	0.3516761474609375	0		-0.4832735900878906	-2.6623251953125	0		1.7620738525390625	-1.2418424072265626	0		3.415106689453125	-0.6346566162109375	0		4.72001806640625	-0.4745294494628906	0		5.96879931640625	0.551294189453125	0		-0.35706588745117185	5.85978955078125	0		
-0.006228545188903809	-0.0011891789436340333	0		0.5610208129882812	-2.59088525390625	0		-0.8491696166992188	0.3565304565429688	0		-0.5441483764648437	-2.686179443359375	0		1.7616204833984375	-1.2416060791015624	0		3.4060693359375	-0.6034791870117188	0		4.71577734375	-0.4625348815917969	0		5.96851953125	0.5511224365234375	0		-0.30766107177734375	5.8746669921875	0		
-0.003572525978088379	0.0032209010124206543	0		0.5893662719726562	-2.590834228515625	0		-0.8495235595703124	0.35706103515625	0		-0.48702340698242186	-2.7043515625	0		1.7611046142578124	-1.2413399658203126	0		3.41240869140625	-0.6214597778320312	0		4.70741015625	-0.4564757080078125	0		5.968185546875	0.5509622192382813	0		-0.30844424438476564	5.87615380859375	0		
-0.0040166029930114745	0.0037000670433044434	0		0.5586319580078125	-2.59206494140625	0		-0.8549774169921875	0.35368670654296874	0		-0.5070044250488281	-2.72559814453125	0		1.760531494140625	-1.241043701171875	0		3.40816943359375	-0.5982894897460938	0		4.7010361328125	-0.4464153442382813	0		5.983796875	0.550635009765625	0		-0.18717073059082032	5.88524755859375	0		
-0.007558073043823242	2.4574899673461916E-4	0		0.614615478515625	-2.613285400390625	0		-0.7834404907226562	0.35343475341796876	0		-0.43427218627929687	-2.7669072265625	0		1.7517899169921876	-1.2506221923828125	0		3.39056640625	-0.601933349609375	0		4.69867236328125	-0.4313722229003906	0		5.97535986328125	0.5506166381835937	0		-0.18705335998535155	5.8857763671875	0		
-0.008098047256469726	7.827649712562561E-4	0		0.5588464965820312	-2.6091572265625	0		-0.8559390258789062	0.35490936279296875	0		-0.4434534912109375	-2.796228759765625	0		1.78501171875	-1.25967041015625	0		3.378156005859375	-0.5856038208007812	0		4.70705126953125	-0.4344259948730469	0		5.97078173828125	0.5425868530273438	0		-0.3071108703613281	5.87676220703125	0		
-0.008676262855529785	0.0013420569896697998	0		0.5928475952148438	-2.622074462890625	0		-0.819484375	0.35510922241210935	0		-0.4377214660644531	-2.82970751953125	0		1.7391900634765625	-1.268749755859375	0		3.377398681640625	-0.5953837280273437	0		4.6686005859375	-0.41988446044921873	0		5.97513720703125	0.5324866333007813	0		-0.29100430297851565	5.88515869140625	0		
0.01566547966003418	-0.0023835220336914063	0		0.5789625244140625	-2.623398193359375	0		-0.8479591674804687	0.36410308837890626	0		-0.42797958374023437	-2.860219970703125	0		1.799442626953125	-1.27008056640625	0		3.383095947265625	-0.565209228515625	0		4.67712060546875	-0.40587008666992186	0		5.982580078125	0.5323877563476562	0		-0.30517523193359375	5.87493359375	0		
-0.006864354133605957	0.00647180700302124	0		0.6150538940429687	-2.6263134765625	0		-0.8265929565429687	0.36150146484375	0		-0.44914974975585936	-2.882345947265625	0		1.7526153564453124	-1.2760947265625	0		3.335382080078125	-0.5673566284179687	0		4.650615234375	-0.39239346313476564	0		5.96911083984375	0.5415863647460938	0		-0.18710371398925782	5.888109375	0		
0.002371546983718872	-0.0030530409812927245	0		0.5561817626953125	-2.626056396484375	0		-0.8272032470703125	0.36216839599609374	0		-0.42545538330078125	-2.916015869140625	0		1.7749625244140625	-1.26793017578125	0		3.348814697265625	-0.5572161254882813	0		4.65301416015625	-0.38622930908203124	0		5.9724169921875	0.5336272583007813	0		-0.18625669860839844	5.88770947265625	0		
5.904949903488159E-4	-0.013440614700317382	0		0.5881338500976563	-2.64190673828125	0		-0.8318693237304687	0.3588814086914062	0		-0.455755859375	-2.950022216796875	0		1.74299951171875	-1.2850831298828125	0		3.3331279296875	-0.556689697265625	0		4.633427734375	-0.37875457763671877	0		5.9687021484375	0.5248035278320312	0		-0.18644720458984376	5.8883232421875	0		
